<?xml version="1.0" encoding="UTF-8"?>
<!DOCTYPE svg PUBLIC "-//W3C//DTD SVG 1.1//EN" "http://www.w3.org/Graphics/SVG/1.1/DTD/svg11.dtd">
<!-- Creator: CorelDRAW -->
<svg xmlns="http://www.w3.org/2000/svg" xml:space="preserve" width="157.652mm" height="77.084mm" version="1.1" style="shape-rendering:geometricPrecision; text-rendering:geometricPrecision; image-rendering:optimizeQuality; fill-rule:evenodd; clip-rule:evenodd"
viewBox="0 0 15765.18 7708.4"
 xmlns:xlink="http://www.w3.org/1999/xlink"
 xmlns:xodm="http://www.corel.com/coreldraw/odm/2003">
 <defs>
  <style type="text/css">
   <![CDATA[
    .fil1 {fill:#058B3A;fill-rule:nonzero}
    .fil2 {fill:#27A94E;fill-rule:nonzero}
    .fil4 {fill:#472C1C;fill-rule:nonzero}
    .fil5 {fill:#E52333;fill-rule:nonzero}
    .fil3 {fill:#F5E1AE;fill-rule:nonzero}
    .fil0 {fill:#F8E5B1;fill-rule:nonzero}
   ]]>
  </style>
 </defs>
 <g id="Camada_x0020_1">
  <metadata id="CorelCorpID_0Corel-Layer"/>
  <path class="fil0" d="M3811.32 7617.79c-224.26,17.46 -534.46,47.38 -930.63,89.71l-108.37 7.45 -100.93 -2589.29 -583.03 2205.11 -519.5 -29.91 -766.2 -2021.98c2.47,59.83 4.97,153.24 7.51,280.31 17.39,754.98 53.52,1286.97 108.37,1595.9l-926.88 145.77c42.33,-181.86 73.48,-383.68 93.45,-605.48 19.89,-221.72 29.88,-525.71 29.88,-911.93 0,-356.27 -8.12,-724.43 -24.31,-1104.4 -16.23,-379.94 -41.73,-779.25 -76.62,-1197.86l1218.42 -14.96 519.5 2317.22 870.83 -2503.48 1188.51 100.89c-5.04,201.82 -83.5,665.3 -85.97,898.28 -2.5,233.01 -3.7,583.67 -3.7,1052.09 0,794.84 6.8,974.86 20.53,1459.47 13.65,484.62 36.72,415.96 69.14,827.09z"/>
  <path class="fil0" d="M5493.91 5625.97c0,-32.88 -8.82,-59.26 -26.43,-79.27 -17.6,-19.93 -40.5,-29.91 -68.68,-29.91 -143.27,0 -272.45,115.07 -387.49,345.19 -115.08,230.19 -172.62,445.07 -172.62,644.63 0,28.19 6.46,54.05 19.41,77.51 12.87,23.49 29.91,35.2 51.04,35.2 119.81,0 247.16,-130.31 382.2,-390.98 135.01,-260.67 202.57,-461.47 202.57,-602.37zm834.85 1613.36c-18.84,0 -328.83,77.47 -929.96,232.48l14.11 -302.93c-63.43,49.29 -145.66,92.78 -246.59,130.32 -101,37.6 -193.75,56.37 -278.31,56.37 -267.72,0 -489.62,-95.67 -665.73,-287.12 -176.17,-191.35 -264.23,-424.47 -264.23,-699.21 0,-354.58 136.18,-693.35 408.63,-1016.28 272.41,-322.86 572.98,-484.33 901.8,-484.33 39.9,0 83.33,2.96 130.32,8.78 46.95,5.9 85.69,14.71 116.24,26.43 2.33,-25.79 6.45,-58.11 12.35,-96.88 5.82,-38.73 8.78,-76.87 8.78,-114.47 0,-129.12 -73.41,-224.83 -220.13,-287.09 -146.79,-62.2 -376.38,-93.35 -688.66,-93.35l-14.11 -831.32c32.88,2.37 82.16,4.73 147.95,7.06 1035.62,49.28 1553.46,420.37 1553.46,1113.12 0,218.4 -3.53,434.48 -10.58,648.16 -7.02,213.71 -10.55,430.95 -10.55,651.68 0,70.45 -1.24,169.69 -3.53,297.64 -2.36,128.02 -3.53,220.17 -3.53,276.51 0,157.37 3.53,295.91 10.59,415.68 7.02,119.76 17.6,236 31.68,348.75z"/>
  <path class="fil0" d="M9050.99 3795.04l-81 3640.84 -979.31 -14.11 21.16 -260.67c-93.94,49.28 -182.03,86.89 -264.19,112.71 -82.23,25.86 -154.98,38.74 -218.41,38.74 -122.13,0 -260.66,-28.72 -415.67,-86.29 -154.98,-57.5 -268.93,-125.06 -341.67,-202.53 -82.23,-84.56 -146.23,-201.97 -191.98,-352.29 -45.79,-150.24 -68.72,-312.27 -68.72,-486.12 0,-328.72 127.99,-902.94 383.96,-1722.51l28.19 -95.11 870.09 204.29c-11.78,58.71 -41.13,185.53 -88.09,380.44 -204.29,829.03 -306.46,1322.17 -306.46,1479.48 0,91.58 8.82,157.97 26.43,199.04 17.6,41.09 45.19,61.63 82.79,61.63 410.95,0 632.85,-570.66 665.76,-1711.96 0,-77.51 1.13,-958.92 3.53,-991.84l873.59 -193.74z"/>
  <polygon class="fil0" points="11273.16,3186.8 10923.56,3899.13 10415.45,3804.93 10520.47,3156.53 "/>
  <path class="fil0" d="M10233.57 5177.35c63,-87.32 135.99,-153.29 219.14,-197.91 59.06,-31.68 124.36,-38.56 195.97,-20.64 71.54,17.96 138.75,56.51 201.54,115.75l-764.57 401.92c35.59,-112.08 84.95,-211.78 147.92,-299.12zm977.02 973.7c-89.82,48.61 -181.86,92.99 -276.34,132.01 -311.96,128.8 -603.99,343.07 -821.65,-47.8 210.43,-96.07 526.1,-238.66 947.07,-428.03 420.9,-189.26 736.63,-331.96 947.06,-427.99 -30.51,-93.49 -62.15,-180.06 -94.96,-259.61 -32.85,-79.55 -67.42,-153.21 -103.83,-221.05 -65.72,-122.45 -147.7,-248.85 -245.85,-379.34 -98.17,-130.35 -187.67,-228.85 -268.39,-295.35 -133,-106.11 -300.21,-176.21 -501.65,-210.39 -201.44,-34.08 -368.86,-15.38 -502.25,56.19 -260.28,139.7 -486.44,344.17 -678.53,613.45 -192.09,269.35 -307.91,545.57 -347.45,828.74 -27.03,217.35 -23.5,445.7 10.65,685.17 34.11,239.43 94.05,439 179.74,598.59 169.02,314.93 415.4,513.01 739.25,594.12 323.85,81.17 653.06,31.89 987.67,-147.68 85.3,-45.79 170.07,-100.4 254.28,-163.93 84.24,-63.5 165.7,-134.69 244.51,-213.64 0,0 -13.9,-1003.34 -13.9,-1004.61 0.67,47.38 -285.11,193 -323.64,216.08 -43.42,25.96 -87.34,51.04 -131.79,75.07z"/>
  <path class="fil0" d="M14807.36 6225.77c0,659.94 -838.38,1020.41 -2515.13,1081.44 -166.76,7.06 -280.63,11.79 -341.66,14.08l0 -1074.35c183.16,0 459.07,1.2 827.79,3.49 368.69,2.37 643.43,3.53 824.3,3.53l38.73 0c93.91,0 161.44,-8.22 202.53,-24.66 41.07,-16.4 61.67,-41.06 61.67,-73.98 0,-46.95 -235.44,-146.72 -706.3,-299.4 -470.85,-152.65 -749.72,-346.36 -836.57,-581.24 -11.79,-35.24 -21.77,-79.79 -29.96,-133.84 -8.25,-54.01 -12.34,-105.69 -12.34,-155.01 0,-314.68 127.99,-553.58 383.96,-716.84 255.94,-163.2 1086.42,-463.24 2140.27,-437.8l294.6 1030.96c-63.39,-7.06 -1145.04,-68.3 -1207.24,-71.83 -62.26,-3.53 -126.26,-5.29 -191.98,-5.29l-49.32 0c-178.5,0 -313.51,14.11 -405.09,42.3 -91.58,28.15 -137.41,69.28 -137.41,123.29 0,79.87 276.54,230.15 829.59,450.89 553.05,220.77 829.56,495.51 829.56,824.26z"/>
  <path class="fil0" d="M1624.34 2877.13c1.59,21.42 -9.53,32.14 -33.34,32.14 -15.06,0 -58.52,-8.71 -130.31,-26.18 -71.79,-17.46 -116.03,-29.35 -132.68,-35.73 -165.84,65.09 -324.91,97.61 -477.28,97.61 -245.14,0 -446.3,-81.74 -603.39,-245.18 -155.5,-161.04 -233.29,-364.56 -233.29,-610.55 0,-251.5 75.39,-460.16 226.13,-626.01 155.51,-171.38 357.47,-257.06 605.83,-257.06 120.58,0 234.03,23.03 340.36,69.03 115.04,50.77 205.49,122.21 271.35,214.21 13.48,19.05 20.22,32.56 20.22,40.5 0,25.36 -35.49,82.3 -106.51,170.78 -71.01,88.44 -116.84,132.68 -137.44,132.68 -4.76,0 -23.04,-16.26 -54.79,-48.79 -38.87,-38.88 -78.52,-69.04 -118.99,-90.45 -60.32,-32.53 -126.93,-48.79 -199.95,-48.79 -118.99,0 -213.43,44.45 -283.25,133.28 -65.05,81.74 -97.58,183.69 -97.58,305.86 0,129.36 33.7,231.7 101.15,307.09 69.81,77.75 168.59,116.63 296.33,116.63 80.96,0 171.41,-20.25 271.39,-60.72 -2.4,-26.17 -9.56,-92.81 -21.45,-199.91 -10.33,-82.55 -15.45,-149.19 -15.45,-199.99 0,-15.03 5.12,-24.17 15.45,-27.34 3.99,-1.59 10.3,-2.4 19.05,-2.4 23,0 57.72,2.22 104.14,6.52 46.43,4.41 81.53,6.56 105.34,6.56 25.37,0 63.43,-1.79 114.23,-5.32 50.77,-3.6 88.87,-5.36 114.27,-5.36 19.82,0 29.77,13.08 29.77,39.26 0,38.1 -2.22,95.64 -6.56,172.58 -4.38,76.94 -6.56,134.48 -6.56,172.54 0,102.38 7.55,255.52 22.61,459.42l1.2 13.09z"/>
  <path class="fil0" d="M3068.22 1833.38c0,58.74 -2.79,146.79 -8.33,264.2 -5.57,117.44 -8.32,205.49 -8.32,264.23 0,57.11 1.94,142.8 5.92,257.07 3.99,114.26 6,199.56 6,255.87 0,21.41 -9.98,34.92 -29.81,40.46 -30.13,7.94 -94.02,11.89 -191.59,11.89 -86.47,0 -146.79,-2.36 -180.91,-7.13 -15.06,-2.4 -24.59,-11.89 -28.57,-28.57 -2.37,-23.78 -4.73,-47.59 -7.13,-71.37 -3.99,-36.51 -9.52,-54.75 -16.65,-54.75 11.08,0 -28.96,26.95 -120.19,80.89 -91.27,53.98 -174.17,80.93 -248.75,80.93 -210.29,0 -334.85,-94.79 -373.73,-284.41 -17.46,-88.09 -26.17,-215.83 -26.17,-383.22 0,-180.91 14.67,-323.75 44.06,-428.49 8.71,-32.52 24.97,-48.79 48.75,-48.79 36.51,0 92.04,0.43 166.65,1.2 74.58,0.78 130.14,1.17 166.62,1.17 24.55,0 36.9,10.33 36.9,30.97 0,5.54 -0.81,13.9 -2.4,24.98 -16.65,107.91 -24.97,217.42 -24.97,328.47 0,138.08 4.34,232.52 13.08,283.28 14.29,87.28 66.22,130.92 155.9,130.92 34.92,0 72.77,-15.49 113.66,-46.43 40.85,-30.94 62.06,-63.08 63.68,-96.41 1.59,-29.32 2.36,-228.5 2.36,-597.43 0,-26.18 1.98,-41.67 5.96,-46.43 4.77,-7.94 19.05,-11.92 42.87,-11.92 38.84,0 97.36,0.42 175.54,1.2 78.14,0.81 136.66,1.2 175.54,1.2 23.78,0 37.64,5.96 41.66,17.85 1.59,6.35 2.37,15.87 2.37,28.57z"/>
  <path class="fil0" d="M4138.4 2327.28c0,-67.42 -21.24,-123.19 -63.68,-167.22 -42.44,-44.02 -97.79,-66.04 -166.01,-66.04 -68.27,0 -123.37,21.84 -165.42,65.44 -42.09,43.64 -63.11,99.59 -63.11,167.82 0,64.27 22.22,119.41 66.67,165.42 44.45,46.03 98.36,69.03 161.86,69.03 67.41,0 122.59,-22.01 165.45,-66.04 42.83,-44.02 64.24,-100.15 64.24,-168.41zm383.22 -7.13c0,61.1 3.57,151.94 10.73,272.52 7.12,120.65 10.72,211.07 10.72,271.36 0,31.75 -13.9,48.82 -41.66,51.19 -98.39,7.12 -211.07,10.72 -338.03,10.72 -15.07,0 -25.19,-22.82 -30.31,-68.44 -5.18,-45.61 -11.32,-68.82 -18.48,-69.63 -6.35,3.17 -14.68,9.94 -24.98,20.24 -88.86,89.65 -184.08,134.48 -285.61,134.48 -154.73,0 -282.89,-61.1 -384.46,-183.26 -95.99,-114.27 -143.96,-250.72 -143.96,-409.44 0,-183.27 49.56,-330.87 148.73,-442.73 103.11,-115.82 244.37,-173.75 423.68,-173.75 124.57,0 222.96,43.64 295.17,130.88 3.18,3.99 5.96,6 8.33,6 7.16,0 15.27,-19.26 24.41,-57.75 9.1,-38.49 20,-57.71 32.74,-57.71 29.31,0 85.26,8.32 167.81,24.97 78.53,15.88 134.87,29.35 169.02,40.47 11.85,4.76 17.82,11.11 17.82,19.05 0,3.17 -1.2,11.53 -3.57,24.97 -25.4,143.65 -38.1,295.6 -38.1,455.86z"/>
  <path class="fil0" d="M5608.46 2173.76c0,30.94 -17.04,46.39 -51.16,46.39 -15.06,0 -37.11,-0.96 -66.04,-2.97 -28.99,-1.94 -50.58,-2.96 -64.87,-2.96 -65.87,0 -110.7,10.34 -134.48,30.94 -23.81,20.67 -35.74,62.3 -35.74,124.95 0,34.15 0.6,85.9 1.8,155.33 1.2,69.43 1.8,121.22 1.8,155.33 0,23 1.59,57.33 4.76,102.94 3.14,45.61 4.77,79.55 4.77,101.78 0,19.01 -13.13,29.74 -39.3,32.1 -38.07,3.17 -96.38,4.76 -174.95,4.76 -75.38,0 -135.67,-2.36 -180.9,-7.12 -26.18,-3.18 -39.26,-16.27 -39.26,-39.27 0,-63.5 0.38,-158.5 1.16,-285.04 0.78,-126.54 1.2,-221.58 1.2,-285.05 0,-186.44 -17.08,-339.97 -51.15,-460.58 -1.59,-7.17 -2.4,-13.09 -2.4,-17.86 0,-11.92 5.96,-19.82 17.85,-23.81 43.64,-4.76 107.52,-13.47 191.63,-26.17 125.34,-24.59 190,-36.9 193.99,-36.9 14.29,0 23.39,24.97 27.34,74.96 3.99,49.99 11.11,75 21.45,75 -11.11,0 21.41,-20.85 97.61,-62.48 76.13,-41.66 149.54,-62.51 220.17,-62.51 44.42,0 66.64,9.53 66.64,28.58 0,23.03 -2.36,55.56 -7.13,97.58 -4.79,45.22 -7.58,77.78 -8.36,97.61 0,23.04 0.39,53.55 1.2,91.65 1.59,46.81 2.37,77.75 2.37,92.82z"/>
  <path class="fil0" d="M6621.54 2327.28c0,-67.42 -21.27,-123.19 -63.68,-167.22 -42.47,-44.02 -97.79,-66.04 -166.05,-66.04 -68.23,0 -123.37,21.84 -165.42,65.44 -42.08,43.64 -63.07,99.59 -63.07,167.82 0,64.27 22.22,119.41 66.64,165.42 44.45,46.03 98.39,69.03 161.85,69.03 67.45,0 122.63,-22.01 165.45,-66.04 42.87,-44.02 64.28,-100.15 64.28,-168.41zm383.22 -7.13c0,61.1 3.57,151.94 10.73,272.52 7.12,120.65 10.69,211.07 10.69,271.36 0,31.75 -13.9,48.82 -41.67,51.19 -98.39,7.12 -211.06,10.72 -337.99,10.72 -15.07,0 -25.19,-22.82 -30.34,-68.44 -5.15,-45.61 -11.29,-68.82 -18.45,-69.63 -6.35,3.17 -14.68,9.94 -25.01,20.24 -88.83,89.65 -184.08,134.48 -285.61,134.48 -154.73,0 -282.9,-61.1 -384.43,-183.26 -96.02,-114.27 -144,-250.72 -144,-409.44 0,-183.27 49.57,-330.87 148.77,-442.73 103.11,-115.82 244.37,-173.75 423.68,-173.75 124.57,0 222.96,43.64 295.17,130.88 3.18,3.99 5.93,6 8.33,6 7.12,0 15.27,-19.26 24.37,-57.75 9.14,-38.49 20.04,-57.71 32.74,-57.71 29.35,0 85.27,8.32 167.82,24.97 78.53,15.88 134.87,29.35 169.01,40.47 11.89,4.76 17.86,11.11 17.86,19.05 0,3.17 -1.2,11.53 -3.6,24.97 -25.4,143.65 -38.07,295.6 -38.07,455.86z"/>
  <path class="fil0" d="M8485.53 2880.7c0,21.41 -11.12,33.72 -33.31,36.9 -22.26,3.14 -80.15,4.76 -173.78,4.76 -99.97,0 -161.85,-2.36 -185.66,-7.12 -23.81,-4.77 -35.7,-21.03 -35.7,-48.83 0,-37.29 1.2,-93.59 3.56,-168.98 2.36,-75.39 3.56,-132.11 3.56,-170.21 0,-29.32 -0.77,-73.17 -2.36,-131.48 -1.62,-58.32 -2.4,-102.17 -2.4,-131.52 0,-108.69 -47.2,-163.05 -141.64,-163.05 -30.9,0 -67.03,13.47 -108.27,40.46 -44.45,30.16 -66.67,59.94 -66.67,89.25l0 642.69c0,26.18 -12.28,40.85 -36.87,44.03 -27.8,3.14 -84.52,4.76 -170.21,4.76 -92.82,0 -153.14,-2.36 -180.87,-7.12 -24.63,-3.99 -36.94,-17.08 -36.94,-39.3 0,-61.88 0.43,-155.08 1.2,-279.69 0.78,-124.56 1.2,-218.19 1.2,-280.88 0,-197.55 -15.49,-352.67 -46.42,-465.35 -1.59,-7.12 -2.37,-13.08 -2.37,-17.81 0,-12.7 5.93,-21.45 17.85,-26.21 49.99,-5.54 116.63,-14.29 199.92,-26.18 126.19,-24.59 197.2,-36.9 213.04,-36.9 8.75,0 15.49,26.78 20.25,80.33 4.77,53.58 11.5,80.32 20.22,80.32 -8.72,0 33.93,-27.55 127.95,-82.69 94.02,-55.14 176.32,-82.72 246.98,-82.72 100.75,0 184.82,23.81 252.31,71.4 75.35,54.75 113.06,130.92 113.06,228.53l0 379.66c0,51.57 0.35,128.73 1.17,231.46 0.77,102.8 1.2,179.91 1.2,231.49z"/>
  <path class="fil0" d="M9558.1 2327.28c0,-67.42 -21.27,-123.19 -63.67,-167.22 -42.48,-44.02 -97.79,-66.04 -166.02,-66.04 -68.26,0 -123.4,21.84 -165.45,65.44 -42.05,43.64 -63.08,99.59 -63.08,167.82 0,64.27 22.23,119.41 66.68,165.42 44.41,46.03 98.32,69.03 161.85,69.03 67.42,0 122.59,-22.01 165.42,-66.04 42.86,-44.02 64.27,-100.15 64.27,-168.41zm383.23 -7.13c0,61.1 3.56,151.94 10.72,272.52 7.13,120.65 10.69,211.07 10.69,271.36 0,31.75 -13.9,48.82 -41.66,51.19 -98.39,7.12 -211.07,10.72 -338,10.72 -15.06,0 -25.19,-22.82 -30.34,-68.44 -5.15,-45.61 -11.29,-68.82 -18.45,-69.63 -6.35,3.17 -14.67,9.94 -25.01,20.24 -88.87,89.65 -184.08,134.48 -285.61,134.48 -154.73,0 -282.89,-61.1 -384.42,-183.26 -96.03,-114.27 -143.97,-250.72 -143.97,-409.44 0,-183.27 49.53,-330.87 148.73,-442.73 103.12,-115.82 244.37,-173.75 423.69,-173.75 124.56,0 222.95,43.64 295.17,130.88 3.17,3.99 5.96,6 8.32,6 7.16,0 15.24,-19.26 24.38,-57.75 9.14,-38.49 20.04,-57.71 32.74,-57.71 29.35,0 85.26,8.32 167.81,24.97 78.53,15.88 134.87,29.35 169.02,40.47 11.89,4.76 17.81,11.11 17.81,19.05 0,3.17 -1.16,11.53 -3.52,24.97 -25.44,143.65 -38.1,295.6 -38.1,455.86z"/>
  <path class="fil0" d="M9361.73 1659.16c26.99,-63.64 78.36,-135.96 154.03,-217.03 75.67,-80.99 144.92,-137.23 207.68,-168.62 9.87,-5.05 17,-6.78 21.38,-5.15 4.9,1.76 8.71,8.15 11.57,19.05 7.9,34.74 13.47,61.34 16.68,79.72 0.28,1.73 0.78,3.43 1.41,5.05 13.55,34.75 24.49,60.57 32.78,77.47 0,0.1 0.03,0.14 0.07,0.25 3.38,10.23 0.03,21.87 -8.58,28.32 -0.91,0.64 -1.76,1.24 -2.57,1.7 -71.37,49.67 -125.1,86.75 -161.22,111.23 -0.81,0.53 -1.55,1.13 -2.29,1.73 -71.05,60.36 -116.63,101.91 -136.63,124.7 -8.54,9.85 -16.65,13.37 -24.24,10.59 -6.56,-2.37 -16.3,-7.02 -29.21,-13.94 -12.95,-6.88 -22.68,-11.53 -29.21,-13.9 -4.9,-1.8 -12.17,-3.88 -21.84,-6.17 -9.66,-2.29 -16.65,-4.23 -21.02,-5.82 -12,-4.41 -15.81,-11.68 -11.5,-21.84l2.71 -7.34z"/>
  <path class="fil1" d="M11012.12 7.25c0,0 -466.26,1291.59 850.48,1651.78 1316.74,360.22 -850.48,-1651.78 -850.48,-1651.78z"/>
  <path class="fil2" d="M15756.85 2743.45c-35.46,31.25 -2150.89,862.08 -2223.95,-581.87 143.02,-1511.38 1472.07,403.5 2223.95,581.87z"/>
  <path class="fil2" d="M9725.6 6.6c0,0 -230.57,2065.16 1834.2,2130.74 2064.74,65.62 -1834.2,-2130.74 -1834.2,-2130.74z"/>
  <path class="fil3" d="M11455.3 1029.94c0,0 -314.39,212.16 -266.95,760.73 47.45,548.57 328.09,901.03 928.55,1044.93 0,0 1329.16,224.97 1642.75,-418.43 313.58,-643.36 -293.41,-1081.33 -616.06,-1219.2 -322.62,-137.87 -1034.49,-466.05 -1688.29,-168.03z"/>
  <path class="fil4" d="M11556.1 1320.49c0,0 -130.07,167.5 -134.44,383.08 -5.61,277.25 277.07,554.57 579.47,627.03 0,0 557.46,12.45 715.37,-311.54 157.9,-323.95 -223.95,-682.76 -386.4,-752.15 -162.46,-69.43 -508.14,-177.91 -774,53.58z"/>
  <path class="fil3" d="M11668.16 1513.24c0,0 9.56,30.38 35.84,49.36 33.76,24.37 92.18,13.12 127,-18.03 0,0 49.18,-67.8 22.65,-115 -26.57,-47.21 -103.51,-30.66 -125.98,-16.55 -22.47,14.15 -65.41,47.59 -59.51,100.22z"/>
  <path class="fil5" d="M11426.17 1143.54c0,0 -122.73,19.58 2.15,-155.15 124.89,-174.73 777.38,-692.85 1436.94,-368.37 0,0 -21.7,32.42 -122.84,66.46 -101.07,34.05 -189.9,201.62 -139.42,219.79 50.49,18.16 155.61,-185.5 375.75,-210.23 216.85,-24.37 1124.72,64.53 955.53,1290.61 -7.48,54.18 -72.57,81.07 -113.77,45.12 -5.93,-5.12 -11.71,-11.33 -17.32,-18.77 -109.96,-146.65 -587.09,-699.95 -1135.91,-805.29 -476.39,-91.44 -627.42,-185.45 -1241.11,-64.17z"/>
  <path class="fil5" d="M11267.42 1894.72c0,0 -206.55,-65.69 -214.95,110.45 -8.36,176.15 -129.68,676.46 596.94,1126.92 0,0 7.58,-423.58 120.26,-409.33 112.71,14.25 -35.1,262.82 62.41,444.46 97.54,181.65 252.09,219.79 397.16,237 145.06,17.25 823.77,79.38 1259.87,-384.53 101.32,-107.81 178.4,-255.51 210.29,-364.56 10.83,-36.93 -9.81,-75.74 -46.67,-86.96 -20.64,-6.28 -42.86,-2.54 -60.57,9.85 -338.88,237.38 -1973.97,519.78 -2324.74,-683.3z"/>
  <path class="fil3" d="M13268.93 2157.87c0.75,0.5 1.49,-0.63 0.75,-1.12 -0.75,-0.5 -1.49,0.63 -0.75,1.12z"/>
  <path class="fil3" d="M10004.35 399.19c0,0 433.14,961.39 1051.13,1126.74l29.92 -176c0,0 -568.15,-103.93 -1081.05,-950.74z"/>
  <path class="fil3" d="M14983.34 2518.14c0,0 -575.88,-509.91 -991.34,-420.69l-7.77 117.9c0,0 408.31,-131.73 999.11,302.79z"/>
 </g>
</svg>
